HIERARCHY
ROOT Hips
{
	OFFSET 0.000000 0.000000 0.000000 
	CHANNELS 6 Xposition Yposition Zposition Yrotation Zrotation Xrotation 
	JOINT Lumbar
	{
		OFFSET 0.000000 0.000000 0.000000 
		CHANNELS 3 Zrotation Xrotation Yrotation
		JOINT Neck
		{
			OFFSET 0.000000 0.445665 0.000000 
			CHANNELS 3 Zrotation Xrotation Yrotation
			End Site
			{
				OFFSET 0.000000 0.227535 0.000000 
			}
		}
		JOINT RightShoulder
		{
			OFFSET 0.019635 0.377685 0.194865 
			CHANNELS 3 Zrotation Xrotation Yrotation
			JOINT RightElbow
			{
				OFFSET 0.000000 -0.243375 0.000000 
				CHANNELS 2 Zrotation Yrotation
				JOINT RightWrist
				{
					OFFSET 0.000000 -0.264825 0.000000 
					CHANNELS 2 Zrotation Xrotation
					End Site
					{
						OFFSET 0.006600 -0.176220 0.000990 
					}
				}
			}
		}
		JOINT LeftShoulder
		{
			OFFSET 0.019635 0.377685 -0.194865 
			CHANNELS 3 Zrotation Xrotation Yrotation
			JOINT LeftElbow
			{
				OFFSET 0.000000 -0.243375 0.000000 
				CHANNELS 2 Zrotation Yrotation
				JOINT LeftWrist
				{
					OFFSET 0.000000 -0.264825 0.000000 
					CHANNELS 2 Zrotation Xrotation
					End Site
					{
						OFFSET 0.006600 -0.176220 -0.000990 
					}
				}
			}
		}
	}
	JOINT RightHip
	{
		OFFSET 0.052140 -0.069960 0.075570 
		CHANNELS 3 Zrotation Xrotation Yrotation
		JOINT RightKnee
		{
			OFFSET 0.000000 -0.402270 0.000000 
			CHANNELS 1 Zrotation
			JOINT RightAnkle
			{
				OFFSET 0.000000 -0.404085 0.000000 
				CHANNELS 3 Zrotation Xrotation Yrotation
				End Site
				{
					OFFSET 0.204105 -0.089430 0.008415 
				}
			}
		}
	}
	JOINT LeftHip
	{
		OFFSET 0.052140 -0.069960 -0.075570 
		CHANNELS 3 Zrotation Xrotation Yrotation
		JOINT LeftKnee
		{
			OFFSET 0.000000 -0.402270 0.000000 
			CHANNELS 1 Zrotation
			JOINT LeftAnkle
			{
				OFFSET 0.000000 -0.404085 0.000000 
				CHANNELS 3 Zrotation Xrotation Yrotation
				End Site
				{
					OFFSET 0.204105 -0.089430 -0.008415 
				}
			}
		}
	}
}
MOTION
Frames: 19
Frame Time: 0.02
0.00016 9e-05 6e-05 20.69397 -35.45264 -2.86118 57.55007 -0.14575 0.52659 -14.34771 -1.34217 -1.50786 52.27787 -97.08613 -87.14544 5.78746 80.00072 -13.56979 -6.89539 166.38744 80.56271 34.72309 15.83613 -70.40977 -2.8408 6.35118 50.12818 -2.97671 -3.35991 -18.94616 -9.08676 -4.58119 -4.58388 55.09514 3.18518 -0.68775 -24.14359 -8.99466 4.3073 4.46292
0.0001 8e-05 7e-05 20.7059 -35.434 -2.85965 57.54008 -0.14925 0.54057 -14.35112 -1.35069 -1.50847 52.26705 -97.08015 -87.14556 5.78741 80.01271 -13.57633 -6.86796 166.38767 80.60168 34.7666 15.76856 -70.40249 -2.84855 6.36855 50.09946 -3.07204 -3.92418 -18.94942 -9.02089 -4.54807 -4.56565 55.05909 3.37688 0.22535 -24.14436 -8.90941 4.23654 4.42265
4e-05 6e-05 9e-05 20.71782 -35.41539 -2.85813 57.53012 -0.15275 0.55461 -14.35453 -1.35918 -1.50907 52.25667 -97.07418 -87.14568 5.78736 80.02471 -13.58281 -6.84071 166.38639 80.64083 34.80938 15.70038 -70.39522 -2.85624 6.3856 50.07079 -3.16716 -4.48725 -18.95266 -8.95517 -4.51503 -4.54747 55.02311 3.56809 1.136 -24.14512 -8.82439 4.16596 4.38249
-2e-05 4e-05 0.00011 20.72972 -35.39681 -2.85661 57.52016 -0.15624 0.56856 -14.35793 -1.36767 -1.50967 52.24592 -97.06821 -87.14581 5.78731 80.03667 -13.58933 -6.81336 166.38786 80.67956 34.85339 15.6329 -70.38795 -2.86398 6.40297 50.04215 -3.26221 -5.04986 -18.9559 -8.88949 -4.48201 -4.5293 54.98717 3.75922 2.04635 -24.14588 -8.7394 4.09541 4.34233
-8e-05 2e-05 0.00013 20.74163 -35.37821 -2.85507 57.51018 -0.15974 0.58245 -14.36132 -1.3762 -1.51027 52.23465 -97.06225 -87.14593 5.78725 80.0486 -13.59592 -6.78582 166.38735 80.71849 34.89634 15.56628 -70.38071 -2.87174 6.42051 50.01348 -3.35743 -5.61346 -18.95915 -8.82367 -4.44892 -4.5111 54.95117 3.95082 2.959 -24.14664 -8.65418 4.02468 4.30208
-0.00014 1e-05 0.00014 20.75356 -35.35957 -2.85359 57.50027 -0.16325 0.59682 -14.3648 -1.38461 -1.51086 52.2262 -97.05629 -87.14605 5.78721 80.06075 -13.60215 -6.75921 166.38216 80.75835 34.93766 15.4948 -70.37338 -2.87926 6.43636 49.98478 -3.45231 -6.1754 -18.96238 -8.75817 -4.41598 -4.49295 54.91525 4.14118 3.86539 -24.14741 -8.56961 3.95444 4.2621
-0.0002 -1e-05 0.00016 20.76544 -35.34104 -2.85198 57.49022 -0.16672 0.61014 -14.36808 -1.39324 -1.51147 52.21188 -97.05029 -87.14618 5.78715 80.07243 -13.60917 -6.73066 166.39709 80.79505 34.98746 15.43331 -70.36617 -2.88739 6.45631 49.95619 -3.54779 -6.74003 -18.96564 -8.69211 -4.38279 -4.47472 54.87922 4.33383 4.78335 -24.14816 -8.48382 3.8833 4.22162
-0.00026 -3e-05 0.00018 20.77737 -35.3224 -2.85051 57.48031 -0.17023 0.62454 -14.37156 -1.40168 -1.51207 52.20333 -97.04438 -87.1463 5.7871 80.08459 -13.61532 -6.70408 166.37396 80.83692 35.01986 15.36238 -70.35896 -2.89471 6.47117 49.92749 -3.64271 -7.30224 -18.96887 -8.62656 -4.34982 -4.45656 54.84328 4.52438 5.69069 -24.14893 -8.39915 3.81298 4.1816
-0.00032 -4e-05 0.00019 20.78934 -35.30364 -2.84917 57.47051 -0.17378 0.63986 -14.37523 -1.40986 -1.51265 52.20048 -97.03839 -87.1464 5.78706 80.09716 -13.62094 -6.67919 166.38148 80.87622 35.06894 15.28062 -70.35132 -2.90203 6.48497 49.89866 -3.737 -7.86159 -18.97207 -8.5616 -4.31712 -4.4385 54.80745 4.71238 6.58532 -24.1497 -8.31583 3.74364 4.14212
-0.00038 -6e-05 0.00021 20.80103 -35.28562 -2.84695 57.45989 -0.17709 0.64866 -14.37767 -1.41946 -1.5133 52.16079 -97.03227 -87.1466 5.78698 80.10684 -13.6312 -6.64242 166.44462 80.90362 35.13612 15.26331 -70.34488 -2.91233 6.52038 49.87057 -3.83509 -8.4377 -18.97548 -8.49314 -4.28285 -4.41989 54.771 4.9151 7.5539 -24.15041 -8.22468 3.66861 4.09947
-0.00044 -8e-05 0.00023 20.81333 -35.26601 -2.84666 57.45113 -0.18089 0.67199 -14.38277 -1.42608 -1.51382 52.20134 -97.02682 -87.1466 5.78698 80.12294 -13.63068 -6.63207 166.24236 80.97311 35.09229 15.10876 -70.33671 -2.91445 6.50033 49.84093 -3.92503 -8.97814 -18.97844 -8.43213 -4.25193 -4.40245 54.73585 5.08672 8.36582 -24.15127 -8.15009 3.60559 4.06353
-0.00048 -0.00011 0.00028 20.82735 -35.24216 -2.85106 57.44646 -0.18632 0.72931 -14.39488 -1.42447 -1.51395 52.44385 -97.02008 -87.14594 5.78725 80.1541 -13.60826 -6.68377 166.56517 81.01408 35.37262 14.59064 -70.31848 -2.91154 6.41203 49.80708 -3.99341 -9.42245 -18.98018 -8.39137 -4.23007 -4.38805 54.70434 5.17265 8.74895 -24.15245 -8.12098 3.57583 4.04602
-0.00052 -0.00014 0.00034 20.84202 -35.21666 -2.85753 57.4439 -0.19217 0.80238 -14.40983 -1.41994 -1.51396 52.77024 -97.01465 -87.14504 5.78761 80.19215 -13.57347 -6.76388 166.42166 81.11986 35.44904 13.93709 -70.30046 -2.89875 6.25583 49.77167 -4.05339 -9.83034 -18.98148 -8.35816 -4.21163 -4.37487 54.67413 5.22738 8.97428 -24.15379 -8.10852 3.55808 4.03527
-0.00056 -0.00018 0.00039 20.85633 -35.19184 -2.86341 57.44095 -0.19769 0.87194 -14.42354 -1.41671 -1.51405 53.07029 -97.01061 -87.14437 5.78791 80.22878 -13.53948 -6.83785 165.63138 81.29533 35.17731 13.3309 -70.28455 -2.87711 6.07162 49.73699 -4.11677 -10.25418 -18.98299 -8.32159 -4.19169 -4.36122 54.64329 5.2967 9.27146 -24.15512 -8.08837 3.53459 4.02142
-0.0006 -0.00021 0.00044 20.8708 -35.16739 -2.86769 57.43537 -0.20391 0.92579 -14.43661 -1.41337 -1.51405 53.32112 -96.99802 -87.1434 5.78826 80.25836 -13.52631 -6.88344 168.3311 81.06949 36.66678 12.76462 -70.25531 -2.90536 6.12199 49.70228 -4.18214 -10.68174 -18.98447 -8.28463 -4.17145 -4.34715 54.61265 5.36442 9.56891 -24.15621 -8.06865 3.51221 4.00764
-0.00064 -0.00025 0.00051 20.88523 -35.1417 -2.87593 57.43605 -0.20863 1.01653 -14.45226 -1.40983 -1.51421 53.69389 -97.0038 -87.14274 5.78854 80.30406 -13.4662 -6.99468 163.81941 81.67343 34.56424 12.1078 -70.25891 -2.83537 5.68497 49.66719 -4.24107 -11.09135 -18.98586 -8.2504 -4.15271 -4.33431 54.58188 5.42784 9.82696 -24.15782 -8.05213 3.49049 3.99536
-0.00065 -0.00031 0.00061 20.89821 -35.11348 -2.89364 57.45109 -0.21022 1.20128 -14.4695 -1.40421 -1.51476 54.3882 -97.05763 -87.14298 5.78867 80.39379 -13.28487 -7.28097 138.05015 84.73708 21.51363 11.02638 -70.30884 -2.42644 3.76904 49.63215 -4.28683 -11.47407 -18.98755 -8.2207 -4.13662 -4.32407 54.5507 5.48926 10.02803 -24.16094 -8.03894 3.4665 3.98506
-0.00065 -0.00039 0.00072 20.91141 -35.08397 -2.91549 57.47282 -0.21009 1.42325 -14.49017 -1.39893 -1.5155 55.20227 -97.13024 -87.14206 5.78873 80.49897 -13.05555 -7.63153 105.30298 88.59923 5.04981 9.8994 -70.39918 -1.93103 1.39186 49.59665 -4.32592 -11.83761 -18.9891 -8.19368 -4.12203 -4.31512 54.51933 5.54708 10.19271 -24.16456 -8.02864 3.44294 3.97611
-0.00065 -0.00046 0.00083 20.92517 -35.0547 -2.93602 57.49305 -0.21 1.63091 -14.51245 -1.39493 -1.51621 55.95673 -97.19598 -87.14354 5.7888 80.59668 -12.8449 -7.953 76.71869 91.97481 -9.13474 8.92692 -70.50123 -1.52254 -0.67459 49.5609 -4.36635 -12.20067 -18.99039 -8.16618 -4.10718 -4.3059 54.48788 5.605 10.36514 -24.16788 -8.01799 3.42 3.96689
